<svg id="Ebene_2" data-name="Ebene 2" xmlns="http://www.w3.org/2000/svg" viewBox="0 0 714.18 696.45"><defs><style>.cls-1{fill:#fefefe;}.cls-2{fill:#db5a48;}.cls-3{fill:#fff;}</style></defs><title>craft-flowplayerdrive</title><g id="MMdbgr.tif"><path d="M345.43,4.52c25.91-6,25.91-6,52.33,0,12.82,2.77,22.33,7,32.54,12.91q99.54,57.45,199.07,114.93c38.19,22.1,57.79,54.64,57.47,99.49-0.55,78.52-.3,157-0.09,235.56,0.11,42.73-18.88,74.43-55.19,95.62Q530.12,622.24,428.08,680.4c-37.45,21.41-75.52,21.4-113,0q-102-58.28-203.47-117.34c-36.36-21.21-55.26-53-55.18-95.67,0.15-80.21,0-160.42.08-240.62,0.06-39.54,17.53-70.43,50.94-90.32,70.16-41.76,141.23-82,212-122.76C327.49,9.06,334.27,6.6,345.43,4.52Z"/><path class="cls-1" d="M389.46,550.42c0-55.55-.64-106.64.3-157.71,0.39-21.39,11-39.38,29.44-50.42,43.2-25.87,87.08-50.61,135.71-78.71,0,33.66-.18,63.36,0,93.07,0.75,107.74,4.63,96.14-86.64,149C443.14,520.26,417.72,534.4,389.46,550.42Z"/><path class="cls-1" d="M188.94,263.67C237.86,292.3,284,318,328.56,346c18.82,11.83,25.52,32.57,25.41,55.09-0.24,48-.07,96-0.1,144.07-6.55,4.4-11.45-.8-16.13-3.45q-58.18-33-116-66.72c-18.56-10.79-31.88-26.76-32.4-48.3C188.09,373.85,188.94,321,188.94,263.67Z"/><path class="cls-1" d="M204.93,233.35c51.33-28.82,98.59-55.84,146.4-81.84a41.93,41.93,0,0,1,37-1.1c51.31,23.06,97.71,54.66,149.44,83.31C491.43,260.49,449.32,285,407,309.2c-24,13.73-48.33,13.09-72.07-.49C293.34,284.9,252,260.64,204.93,233.35Z"/></g><rect class="cls-2" x="45.19" y="528.41" width="264.55" height="139.25" rx="12" ry="12"/><g id="OY6nfz.tif"><path class="cls-3" d="M255.42,633.55a9,9,0,0,1-8.49-9c-0.2-4.08.93-8,1.68-11.88,1.15-6.08,2.36-12.14,3.59-18.2,0.21-1,0-1.31-1.07-1.3-5.37.05-10.74,0.07-16.11,0a1.4,1.4,0,0,0-1.65,1.41q-5.93,30.81-11.91,61.62a1.28,1.28,0,0,1-.31.93c-2.29,0-4.59,0-6.88,0a2.05,2.05,0,0,1-1.51-.28c1.38-7.2,2.74-14.41,4.15-21.61q4-20.33,8-40.64c0.23-1.18-.06-1.47-1.23-1.41-1.93.09-3.87,0-5.8,0-0.44,0-1,.26-1.33-0.25,2.65-.32,5.29,0,7.72-0.14a5.17,5.17,0,0,0-1.62,0c-1.5,0-3,0-4.49,0a1.32,1.32,0,0,1-1.42-.46c3-2.3,6-4.62,9-6.89a3.27,3.27,0,0,0,1.3-2.13c1.31-6.14,2.24-12.36,4-18.39a36.05,36.05,0,0,1,2.72-6.71c3.32-6.22,8.72-8.61,15.5-8.43a25.35,25.35,0,0,1,5.59.75c0.77,0.2.89,0.47,0.58,1.19-0.86,2-1.65,4-2.43,6.05a0.92,0.92,0,0,1-1.28.7,17.8,17.8,0,0,0-6-.21,6.34,6.34,0,0,0-5.4,4.23,55,55,0,0,0-2.53,10c-0.89,4.35-1.74,8.71-2.61,13.07,0.32,0.57.86,0.28,1.29,0.28,3,0,6,0,9,0,0.58,0,1.19-.08,1.33.72a24.23,24.23,0,0,1-.79,3.89c0.48,0.29.68-.1,0.92-0.27a24.26,24.26,0,0,1,2.78-2.09A9.85,9.85,0,0,0,255.1,579c0.07-3.09,1.54-4.76,4.55-5.41a36.22,36.22,0,0,0,4.89-1.79,3,3,0,0,1,.48-0.06l-2.63,13.86a1.58,1.58,0,0,0,1.36.21c3.31,0,6.62.06,9.93,0,1.07,0,1.47.32,1.45,1.32a38.8,38.8,0,0,1-1.1,5.61c-3.88.13-7.76,0-11.65,0.07,3.34,0,6.68,0,10,0a3,3,0,0,1,1.56.13,1.3,1.3,0,0,1-1.33.25c-3.34,0-6.68.08-10,0-1.35,0-1.89.28-2.15,1.71-1.56,8.51-3.27,17-4.87,25.48-0.64,3.38.43,4.89,3.82,5.52a18.24,18.24,0,0,0,6.06,0c1.65-.25,1.65-0.22,1.33,1.36s-0.68,3.12-.9,4.7a1.27,1.27,0,0,1-1.26,1.27,18.71,18.71,0,0,1-3.15.42C259.47,633.58,257.44,633.61,255.42,633.55Z"/><path class="cls-3" d="M116.09,557a38.48,38.48,0,0,0-10.91,2.73c-12.66,5.75-19.89,15.79-22.55,29.2-1.44,7.25-1.12,14.48,2,21.32,4.3,9.33,11.69,14.58,21.84,15.85,9,1.13,17.12-1.56,24.78-6,1.22-.71,1.65-0.47,2.14.71,0.69,1.65,1.51,3.25,2.33,4.84a0.86,0.86,0,0,1-.37,1.38,47.46,47.46,0,0,1-23.45,7.15,21.74,21.74,0,0,0-5.21,0c-14.5-1.23-25.15-8.27-31-21.63-5-11.46-4-23.19,1-34.37,7.38-16.51,20.25-26.37,38.21-28.92,10.86-1.54,20.89,1.36,30,7.41,0.69,0.46.9,0.8,0.36,1.58-1.2,1.75-2.32,3.57-3.43,5.38-0.34.56-.6,0.75-1.22,0.3a36.36,36.36,0,0,0-18.85-6.78,1.54,1.54,0,0,1-.4-0.15,0.3,0.3,0,0,1,.35-0.14c-0.09-.16-0.23,0-0.34-0.05H115C115.27,556.92,115.76,556.58,116.09,557Z"/><path class="cls-3" d="M190.05,604a22,22,0,0,1,10.88,3.4,37,37,0,0,0,1-6.06c0.29-5-3-8.52-8-8.74a29.92,29.92,0,0,0-11.77,2c-1.24.46-1.54,0.12-1.62-1-0.12-1.88-.31-3.75-0.55-5.62a0.7,0.7,0,0,1,.59-0.93,44.34,44.34,0,0,1,11.18-2.23,16.59,16.59,0,0,0,4.63,0c7.68,0.13,13.28,4.93,13.91,11.9,0,2.12,0,4.25,0,6.37-0.33,3.95-1.37,7.77-2.1,11.64-1.07,5.73-2.27,11.43-3.41,17.14a5.62,5.62,0,0,1-.22.67,59.85,59.85,0,0,1-6.75.18,1,1,0,0,1-1.11-1.15l0.47-3a3.54,3.54,0,0,0-1.55,1c-4.65,3.61-9.9,5.11-15.66,3.88-12.37-2.65-13.49-16.23-7.56-23.14,3.62-4.22,8.37-6,13.81-6.34A11.07,11.07,0,0,0,190.05,604Z"/><path class="cls-3" d="M142.46,631.86c1.17-6.15,2.32-12.31,3.52-18.46q2.58-13.35,5.21-26.69a2.88,2.88,0,0,1,.21-0.52,1.92,1.92,0,0,1,1.28-.38c1.89,0,3.77,0,5.66,0a1,1,0,0,1,1.18,1l-1.1,6a2,2,0,0,0,1.13-1.05c3.39-4,7.51-6.61,12.86-7.05,1.1-.09,1.31.23,1.09,1.25-0.43,2-.81,4.07-1.12,6.13a1.16,1.16,0,0,1-1.36,1.22,16.43,16.43,0,0,0-12.8,6.08,5.28,5.28,0,0,0-1.26,2.54c-1.85,9.82-3.75,19.63-5.58,29.46-0.23,1.22-.64,1.68-1.94,1.61-2.07-.12-4.16,0-6.24-0.05-0.32,0-1.09.37-.83-0.58,2.61,0.48,5.24.06,7.87,0.18,0.19-.09,0-0.37.05-0.19s0,0.11-.06.11c-2.34.21-4.69,0-7,.1A0.77,0.77,0,0,1,142.46,631.86Z"/><path class="cls-3" d="M196.78,631.57a1.29,1.29,0,0,0,1.44.88c2.08-.18,4.2.29,6.27-0.28a3.21,3.21,0,0,1,.15.37c-0.16.64-.68,0.4-1.06,0.4-2,0-3.92-.06-5.87,0C196.38,633.05,196.37,632.51,196.78,631.57Z"/><path class="cls-3" d="M212.74,656.83c2.64,0,5.29,0,7.93-.09a0.38,0.38,0,0,1,.46.38c-2.44.52-4.91,0.11-7.36,0.21C213.41,657.35,212.72,657.71,212.74,656.83Z"/><path class="cls-3" d="M275.12,587.11a1.51,1.51,0,0,0-1.74-1.19c-3.18.09-6.36,0-9.54,0-0.5,0-1.08.23-1.45-.35,3.88,0,7.77.06,11.65,0C275.39,585.55,275.66,586,275.12,587.11Z"/><path class="cls-3" d="M274,592.93h-12.7v-0.29h6.8c1.45,0,2.89,0,4.34,0,0.44,0,1,.23,1.27-0.39,0.12-.26.25-0.24,0.3,0s0,0.29,0,.43A0.17,0.17,0,0,1,274,592.93Z"/><path class="cls-3" d="M246.67,586.53A1.66,1.66,0,0,0,245,586c-2.84,0-5.68,0-8.52,0-0.49,0-1.09.24-1.39-.43,3.61,0,7.22.07,10.82,0.08C246.62,585.61,247.1,585.67,246.67,586.53Z"/><path class="cls-3" d="M159.52,586.82a1.34,1.34,0,0,0-1.42-.88c-1.72.07-3.45,0-5.18,0-0.49,0-1.11-.18-1.2.64,0,0.27-.17.33-0.27,0a2.41,2.41,0,0,1,0-.43c0-.83.64-0.56,1-0.56,2.07,0,4.15,0,6.22,0C159.76,585.55,159.94,585.92,159.52,586.82Z"/><path class="cls-3" d="M210.37,603.09a16,16,0,0,1,0-6.37A17.44,17.44,0,0,1,210.37,603.09Z"/><path class="cls-3" d="M255.42,633.55a14.34,14.34,0,0,1,6.08,0A15.9,15.9,0,0,1,255.42,633.55Z"/><path class="cls-3" d="M216.71,592.32c1.28,0.62,2.65.24,4,.31a22.26,22.26,0,0,1,3.87.3h-8A0.42,0.42,0,0,1,216.71,592.32Z"/><path class="cls-3" d="M142.46,631.86a1.59,1.59,0,0,0,1.53.58c2.17,0,4.33,0,6.49.15-2.7-.11-5.41.57-8.09-0.22Z"/><path class="cls-3" d="M116.09,557l-1.54-.11v-0.16h8.08v0.16l-1.24.12h-5.32Z"/><path class="cls-3" d="M106.71,634.15a10.38,10.38,0,0,1,5.21,0A37,37,0,0,1,106.71,634.15Z"/><path class="cls-3" d="M196.44,584.81a8.23,8.23,0,0,1-4.63,0A24.12,24.12,0,0,1,196.44,584.81Z"/><path class="cls-3" d="M190.05,604a5.44,5.44,0,0,1-3.76,0A20.32,20.32,0,0,1,190.05,604Z"/><path class="cls-3" d="M243.42,592.85h-9.49v-0.14h9.51Z"/><path class="cls-2" d="M185.92,626.76c-0.67,0-1.36,0-2-.15-2.74-.42-5-1.59-6-4.33a7.63,7.63,0,0,1,1.19-7.79,10,10,0,0,1,7.15-3.67,18.56,18.56,0,0,1,12.54,3,1.22,1.22,0,0,1,.66,1.66,1.2,1.2,0,0,0-.07.43c-0.22,6.44-4.87,8.64-10,10.39A14.32,14.32,0,0,1,185.92,626.76Z"/><path class="cls-3" d="M191.28,592.13h3.12v0.14h-3.11v-0.14Z"/></g></svg>